{"title":"Gulaab Gang (2014) - DVDRip - x264 - 1xCD - SAP [DDR]","uid":10060547,"size":745571463,"categoryP":"video","categoryS":"movies","magnet":"?xt=urn:btih:d2a092f0e053b2fef5d58b8e398802dd3be0959b&amp;dn=Gulaab+Gang+%282014%29+-+DVDRip+-+x264+-+1xCD+-+SAP+%5BDDR%5D&amp;tr=udp%3A%2F%2Ftracker.openbittorrent.com%3A80&amp;tr=udp%3A%2F%2Fopen.demonii.com%3A1337&amp;tr=udp%3A%2F%2Ftracker.coppersurfer.tk%3A6969&amp;tr=udp%3A%2F%2Fexodus.desync.com%3A6969","seeders":3,"leechers":1,"uploader":"SaM","files":15,"time":1398720233,"description":"- BollyWooD MoviE -\nGulaab Gang\n\n**DVDRip / x264 / 1xCD / SAP**\n\nGeneral\nComplete name                            : Gulaab Gang (2014) - DVDRip - x264 - 1xCD - SAP [DDR].mp4\nFormat                                  : MPEG-4\nFormat profile                          : Base Media\nCodec ID                                : isom\nFile size                                : 700 MiB\nDuration                                : 2h 8mn\nOverall bit rate                        : 760 Kbps\n\nVideo\nID                                      : 1\nFormat                                  : AVC\nFormat/Info                              : Advanced Video Codec\nFormat profile                          : &lt;a class=&quot;__cf_email__&quot; href=&quot;/cdn-cgi/l/email-protection&quot; data-cfemail=&quot;5518343c3b1519667b64&quot;&gt;[email&amp;#160;protected]&lt;/a&gt;&lt;script cf-hash='f9e31' type=&quot;text/javascript&quot;&gt;\n/* &lt;![CDATA[ */!function(){try{var t=&quot;currentScript&quot;in document?document.currentScript:function(){for(var t=document.getElementsByTagName(&quot;script&quot;),e=t.length;e--;)if(t[e].getAttribute(&quot;cf-hash&quot;))return t[e]}();if(t&amp;&amp;t.previousSibling){var e,r,n,i,c=t.previousSibling,a=c.getAttribute(&quot;data-cfemail&quot;);if(a){for(e=&quot;&quot;,r=parseInt(a.substr(0,2),16),n=2;a.length-n;n+=2)i=parseInt(a.substr(n,2),16)^r,e+=String.fromCharCode(i);e=document.createTextNode(e),c.parentNode.replaceChild(e,c)}}}catch(u){}}();/* ]]&gt; */&lt;/script&gt;\nFormat settings, CABAC                  : Yes\nFormat settings, ReFrames                : 3 frames\nCodec ID                                : avc1\nCodec ID/Info                            : Advanced Video Coding\nDuration                                : 2h 8mn\nBit rate                                : 678 Kbps\nMaximum bit rate                        : 3 508 Kbps\nWidth                                    : 640 pixels\nHeight                                  : 272 pixels\nDisplay aspect ratio                    : 2.35:1\nFrame rate mode                          : Constant\nFrame rate                              : 24.975 fps\nColor space                              : YUV\nChroma subsampling                      : 4:2:0\nBit depth                                : 8 bits\nScan type                                : Progressive\nBits/(Pixel*Frame)                      : 0.156\nStream size                              : 624 MiB (89%)\nTitle                                    : Track 1 [DDR]\n\nAudio\nID                                      : 2\nFormat                                  : MPEG Audio\nFormat version                          : Version 1\nFormat profile                          : Layer 3\nMode                                    : Joint stereo\nMode extension                          : MS Stereo\nCodec ID                                : 6B\nDuration                                : 2h 8mn\nBit rate mode                            : Constant\nBit rate                                : 80.0 Kbps\nMaximum bit rate                        : 83.5 Kbps\nChannel(s)                              : 2 channels\nSampling rate                            : 32.0 KHz\nCompression mode                        : Lossy\nStream size                              : 73.6 MiB (11%)\nTitle                                    : Track 1 [DDR]\n\n[ SCREENS ]\n\n &lt;a href=&quot;\nhttp://img835.imageshack.us/img835/9168/hz4a.png&quot; rel=&quot;nofollow&quot; target=&quot;_NEW&quot;&gt;\nhttp://img835.imageshack.us/img835/9168/hz4a.png&lt;/a&gt;\n &lt;a href=&quot;\nhttp://img845.imageshack.us/img845/2897/33o5.png&quot; rel=&quot;nofollow&quot; target=&quot;_NEW&quot;&gt;\nhttp://img845.imageshack.us/img845/2897/33o5.png&lt;/a&gt;\n &lt;a href=&quot;\nhttp://img835.imageshack.us/img835/8426/lf95.png&quot; rel=&quot;nofollow&quot; target=&quot;_NEW&quot;&gt;\nhttp://img835.imageshack.us/img835/8426/lf95.png&lt;/a&gt;\n &lt;a href=&quot;\nhttp://img838.imageshack.us/img838/8226/9t59.png&quot; rel=&quot;nofollow&quot; target=&quot;_NEW&quot;&gt;\nhttp://img838.imageshack.us/img838/8226/9t59.png&lt;/a&gt;\n &lt;a href=&quot;\nhttp://img835.imageshack.us/img835/3057/mr1c.png&quot; rel=&quot;nofollow&quot; target=&quot;_NEW&quot;&gt;\nhttp://img835.imageshack.us/img835/3057/mr1c.png&lt;/a&gt;\n &lt;a href=&quot;\nhttp://img834.imageshack.us/img834/7425/9gfx.png&quot; rel=&quot;nofollow&quot; target=&quot;_NEW&quot;&gt;\nhttp://img834.imageshack.us/img834/7425/9gfx.png&lt;/a&gt;\n &lt;a href=&quot;\nhttp://img838.imageshack.us/img838/6466/5mlm.png&quot; rel=&quot;nofollow&quot; target=&quot;_NEW&quot;&gt;\nhttp://img838.imageshack.us/img838/6466/5mlm.png&lt;/a&gt;\n\n\n\n[ COMPARISION ]\n &lt;a href=&quot;\nhttp://img834.imageshack.us/img834/6668/24kg.png&quot; rel=&quot;nofollow&quot; target=&quot;_NEW&quot;&gt;\nhttp://img834.imageshack.us/img834/6668/24kg.png&lt;/a&gt;\n &lt;a href=&quot;\nhttp://img835.imageshack.us/img835/2509/5xij.png&quot; rel=&quot;nofollow&quot; target=&quot;_NEW&quot;&gt;\nhttp://img835.imageshack.us/img835/2509/5xij.png&lt;/a&gt;\n\n","torrent":{"xt":"urn:btih:d2a092f0e053b2fef5d58b8e398802dd3be0959b","amp;dn":"Gulaab+Gang+%282014%29+-+DVDRip+-+x264+-+1xCD+-+SAP+%5BDDR%5D","amp;tr":["udp%3A%2F%2Ftracker.openbittorrent.com%3A80","udp%3A%2F%2Fopen.demonii.com%3A1337","udp%3A%2F%2Ftracker.coppersurfer.tk%3A6969","udp%3A%2F%2Fexodus.desync.com%3A6969"],"infoHash":"d2a092f0e053b2fef5d58b8e398802dd3be0959b","infoHashBuffer":{"type":"Buffer","data":[210,160,146,240,224,83,178,254,245,213,139,142,57,136,2,221,59,224,149,155]},"announce":[],"urlList":[]}}